<svg xmlns="http://www.w3.org/2000/svg" version="1.1" xmlns:xlink="http://www.w3.org/1999/xlink" xmlns:svgjs="http://svgjs.dev/svgjs" width="2000" height="2250" viewBox="0 0 2000 2250"><g transform="matrix(1,0,0,1,0,0)"><svg viewBox="0 0 320 360" data-background-color="#f9f9f9" preserveAspectRatio="xMidYMid meet" height="2250" width="2000" xmlns="http://www.w3.org/2000/svg" xmlns:xlink="http://www.w3.org/1999/xlink"><g id="tight-bounds" transform="matrix(1,0,0,1,0,0)"><svg viewBox="0 0 320 360" height="360" width="320"><g><svg></svg></g><g><svg viewBox="0 0 320 360" height="360" width="320"><g><path d="M297.491 100.645c-12.426-21.51-112.674-79.355-137.491-79.355-24.817 0-125.028 57.845-137.491 79.355-11.591 20.02-11.591 138.726 0 158.746 12.463 21.474 112.674 79.319 137.491 79.319 24.817 0 125.064-57.845 137.491-79.355 11.591-20.02 11.591-138.69 0-158.71zM309.481 93.705c-14.461-24.998-119.469-86.295-149.481-86.295-30.012 0-135.02 61.297-149.481 86.295-14.025 24.199-14.025 148.391 0 172.59 14.461 24.998 119.469 86.295 149.481 86.295 30.012 0 135.02-61.297 149.481-86.259 14.025-24.235 14.025-148.427 0-172.626zM300.906 261.353c-12.753 22.055-115.472 81.317-140.906 81.318-25.434 0-128.153-59.298-140.906-81.354-11.881-20.529-11.881-142.178 0-162.707 12.753-22.019 115.472-81.281 140.906-81.281 25.434 0 128.153 59.298 140.906 81.318 11.881 20.529 11.881 142.178 0 162.706z" fill="#000000" fill-rule="nonzero" stroke="none" stroke-width="1" stroke-linecap="butt" stroke-linejoin="miter" stroke-miterlimit="10" stroke-dasharray="" stroke-dashoffset="0" font-family="none" font-weight="none" font-size="none" text-anchor="none" style="mix-blend-mode: normal" data-fill-palette-color="tertiary"></path></g><g transform="matrix(1,0,0,1,53.88987992766086,90)"><svg viewBox="0 0 212.22024014467829 180" height="180" width="212.22024014467829"><g><svg viewBox="0 0 224 189.99130324474416" height="180" width="212.22024014467829"><g><svg viewBox="0 0 224 189.99130324474416" height="189.99130324474416" width="224"><g><svg viewBox="0 0 224 189.99130324474416" height="189.99130324474416" width="224"><g><rect width="224" height="146.97862752875844" fill="none" stroke-width="6.566580000000001" stroke="#000000" data-fill-palette-color="none" data-stroke-palette-color="tertiary"></rect><rect width="224" height="43.01267571598572" y="146.97862752875844" fill="#000000" data-fill-palette-color="tertiary"></rect></g><g><svg viewBox="0 0 224 146.97862752875844" height="146.97862752875844" width="224"><g transform="matrix(1,0,0,1,17.19,17.19)"><svg width="189.62" viewBox="0.95 -36.06 61.55 36.550000000000004" height="112.59862752875844" data-palette-color="#f9f9f9"><path d="M19.46-35.55L19.46 0 11.55 0 11.55-35.55 19.46-35.55ZM30.2-35.55L30.2-29.13 0.95-29.13 0.95-35.55 30.2-35.55ZM54.54-11.96L62.47-11.96Q62.25-8.33 60.48-5.51 58.71-2.69 55.54-1.1 52.37 0.49 47.97 0.49L47.97 0.49Q43.33 0.49 40-1.6 36.67-3.69 34.89-7.56 33.1-11.43 33.1-16.75L33.1-16.75 33.1-18.77Q33.1-24.12 34.95-27.98 36.79-31.84 40.13-33.95 43.48-36.06 48-36.06L48-36.06Q52.54-36.06 55.64-34.4 58.74-32.74 60.45-29.86 62.16-26.98 62.5-23.34L62.5-23.34 54.59-23.34Q54.39-26.37 52.95-27.95 51.51-29.54 48-29.54L48-29.54Q45.68-29.54 44.16-28.43 42.65-27.32 41.9-24.95 41.16-22.58 41.16-18.82L41.16-18.82 41.16-16.75Q41.16-13.04 41.83-10.67 42.5-8.3 44-7.15 45.51-6.01 47.97-6.01L47.97-6.01Q50.12-6.01 51.54-6.65 52.95-7.3 53.68-8.63 54.42-9.96 54.54-11.96L54.54-11.96Z" opacity="1" transform="matrix(1,0,0,1,0,0)" fill="#ffffff" class="undefined-text-0" data-fill-palette-color="quaternary" id="text-0"></path></svg></g></svg></g></svg></g></svg></g></svg></g></svg></g></svg></g><defs></defs></svg><rect width="320" height="360" fill="none" stroke="none" visibility="hidden"></rect></g></svg></g></svg>